<?xml version="1.0" encoding="UTF-8" standalone="no"?>
<svg width="231px" height="15px" viewBox="0 0 231 15" version="1.1" xmlns="http://www.w3.org/2000/svg" xmlns:xlink="http://www.w3.org/1999/xlink" xmlns:sketch="http://www.bohemiancoding.com/sketch/ns">
    <!-- Generator: Sketch Beta 3.4 (15009) - http://www.bohemiancoding.com/sketch -->
    <title>js-logo</title>
    <desc>Created with Sketch Beta.</desc>
    <defs></defs>
    <g id="Page-1" stroke="none" stroke-width="1" fill="none" fill-rule="evenodd" sketch:type="MSPage">
        <g id="Desktop-HD-Copy-8" sketch:type="MSArtboardGroup" transform="translate(-60.000000, -57.000000)" fill="#858F97">
            <g id="js-logo" sketch:type="MSLayerGroup" transform="translate(60.000000, 57.000000)">
                <g id="Group" sketch:type="MSShapeGroup">
                    <path d="M0.590415335,11.9285714 L1.47603834,11.4285714 C2.36166134,12.8571429 3.24728435,13.5714286 4.94472843,13.5714286 C6.64217252,13.5714286 7.97060703,12.2857143 7.97060703,9.92857143 L7.97060703,0.714285714 L9.00383387,0.714285714 L9.00383387,9.85714286 C9.00383387,11.4285714 8.48722045,12.6428571 7.74920128,13.3571429 C7.01118211,14.0714286 5.97795527,14.4285714 4.87092652,14.4285714 C2.80447284,14.5 1.47603834,13.4285714 0.590415335,11.9285714 Z M15.6460064,8.64285714 L15.6460064,0.714285714 L16.6792332,0.714285714 L16.6792332,8.57142857 C16.6792332,11.7857143 18.4504792,13.6428571 21.4025559,13.6428571 C24.2808307,13.6428571 26.0520767,12 26.0520767,8.71428571 L26.0520767,0.714285714 L27.0853035,0.714285714 L27.0853035,8.5 C27.0853035,12.4285714 24.7236422,14.5 21.328754,14.5 C18.0076677,14.5 15.6460064,12.4285714 15.6460064,8.64285714 Z M33.0632588,12.2857143 L33.727476,11.5 C35.2773163,12.8571429 36.6795527,13.5 38.7460064,13.5 C40.886262,13.5 42.2884984,12.3571429 42.2884984,10.7857143 L42.2884984,10.7142857 C42.2884984,9.28571429 41.4766773,8.42857143 38.3031949,7.85714286 C34.9083067,7.21428571 33.5798722,6.07142857 33.5798722,4 L33.5798722,3.92857143 C33.5798722,1.92857143 35.498722,0.357142857 38.0817891,0.357142857 C40.1482428,0.357142857 41.4766773,0.928571429 42.8789137,2 L42.2146965,2.78571429 C40.886262,1.71428571 39.5578275,1.28571429 38.0079872,1.28571429 C35.9415335,1.28571429 34.613099,2.42857143 34.613099,3.85714286 L34.613099,3.92857143 C34.613099,5.35714286 35.3511182,6.21428571 38.6722045,6.92857143 C41.9194888,7.57142857 43.2479233,8.71428571 43.2479233,10.6428571 L43.2479233,10.7142857 C43.2479233,12.9285714 41.3290735,14.4285714 38.5984026,14.4285714 C36.5319489,14.5 34.7607029,13.7857143 33.0632588,12.2857143 Z M53.284984,1.64285714 L48.4140575,1.64285714 L48.4140575,0.714285714 L59.2629393,0.714285714 L59.2629393,1.64285714 L54.3920128,1.64285714 L54.3920128,14.2857143 L53.3587859,14.2857143 L53.3587859,1.64285714 L53.284984,1.64285714 Z M65.4623003,0.714285714 L66.4955272,0.714285714 L66.4955272,14.2857143 L65.4623003,14.2857143 L65.4623003,0.714285714 Z M73.728115,0.714285714 L74.6875399,0.714285714 L84.3555911,12.5 L84.3555911,0.714285714 L85.3888179,0.714285714 L85.3888179,14.2857143 L84.5769968,14.2857143 L74.6875399,2.21428571 L74.6875399,14.2857143 L73.6543131,14.2857143 L73.6543131,0.714285714 L73.728115,0.714285714 Z M100.444409,12.2857143 L101.108626,11.5 C102.658466,12.8571429 104.060703,13.5 106.127157,13.5 C108.267412,13.5 109.669649,12.3571429 109.669649,10.7857143 L109.669649,10.7142857 C109.669649,9.28571429 108.857827,8.42857143 105.684345,7.85714286 C102.289457,7.21428571 100.961022,6.07142857 100.961022,4 L100.961022,3.92857143 C100.961022,1.92857143 102.879872,0.357142857 105.462939,0.357142857 C107.529393,0.357142857 108.857827,0.928571429 110.260064,2 L109.595847,2.78571429 C108.267412,1.71428571 106.938978,1.28571429 105.389137,1.28571429 C103.322684,1.28571429 101.994249,2.42857143 101.994249,3.85714286 L101.994249,3.92857143 C101.994249,5.35714286 102.732268,6.21428571 106.053355,6.92857143 C109.300639,7.57142857 110.629073,8.71428571 110.629073,10.6428571 L110.629073,10.7142857 C110.629073,12.9285714 108.710224,14.4285714 105.979553,14.4285714 C103.839297,14.5 102.141853,13.7857143 100.444409,12.2857143 Z M116.459425,7.5 C116.459425,3.64285714 119.411502,0.428571429 123.470607,0.428571429 C125.979872,0.428571429 127.455911,1.28571429 128.931949,2.57142857 L128.19393,3.28571429 C126.939297,2.14285714 125.537061,1.28571429 123.470607,1.28571429 C120.075719,1.28571429 117.566454,3.92857143 117.566454,7.35714286 L117.566454,7.42857143 C117.566454,10.8571429 120.149521,13.5714286 123.470607,13.5714286 C125.463259,13.5714286 126.865495,12.7857143 128.267732,11.4285714 L129.005751,12.0714286 C127.529712,13.5 125.90607,14.4285714 123.396805,14.4285714 C119.411502,14.5 116.459425,11.4285714 116.459425,7.5 Z M134.7623,0.714285714 L135.795527,0.714285714 L135.795527,7 L144.799361,7 L144.799361,0.714285714 L145.832588,0.714285714 L145.832588,14.2857143 L144.799361,14.2857143 L144.799361,7.92857143 L135.795527,7.92857143 L135.795527,14.2857143 L134.7623,14.2857143 L134.7623,0.714285714 Z M152.696166,8.64285714 L152.696166,0.714285714 L153.729393,0.714285714 L153.729393,8.57142857 C153.729393,11.7857143 155.500639,13.6428571 158.452716,13.6428571 C161.33099,13.6428571 163.102236,12 163.102236,8.71428571 L163.102236,0.714285714 L164.135463,0.714285714 L164.135463,8.5 C164.135463,12.4285714 161.773802,14.5 158.378914,14.5 C155.057827,14.5 152.696166,12.4285714 152.696166,8.64285714 Z M180.9623,14.2857143 L170.851438,14.2857143 L170.851438,13.3571429 L179.855272,13.3571429 L179.855272,7.92857143 L171.810863,7.92857143 L171.810863,7 L179.855272,7 L179.855272,1.64285714 L170.92524,1.64285714 L170.92524,0.714285714 L180.888498,0.714285714 L180.888498,14.2857143 L180.9623,14.2857143 Z M187.383067,0.714285714 L188.416294,0.714285714 L188.416294,13.3571429 L196.682109,13.3571429 L196.682109,14.2857143 L187.383067,14.2857143 L187.383067,0.714285714 L187.383067,0.714285714 Z M202.733866,0.714285714 L212.697125,0.714285714 L212.697125,1.64285714 L203.767093,1.64285714 L203.767093,7 L211.811502,7 L211.811502,7.92857143 L203.767093,7.92857143 L203.767093,13.3571429 L212.770927,13.3571429 L212.770927,14.2857143 L202.660064,14.2857143 L202.660064,0.714285714 L202.733866,0.714285714 Z M219.044089,0.714285714 L224.948243,0.714285714 C226.645687,0.714285714 228.047923,1.21428571 228.933546,2.07142857 C229.597764,2.71428571 229.966773,3.64285714 229.966773,4.57142857 L229.966773,4.64285714 C229.966773,6.92857143 228.195527,8.21428571 225.833866,8.5 L230.483387,14.2857143 L229.154952,14.2857143 L224.653035,8.64285714 L224.579233,8.64285714 L220.003514,8.64285714 L220.003514,14.2857143 L218.970288,14.2857143 L218.970288,0.714285714 L219.044089,0.714285714 Z M224.800639,7.71428571 C227.1623,7.71428571 228.859744,6.57142857 228.859744,4.64285714 L228.859744,4.57142857 C228.859744,2.71428571 227.383706,1.57142857 224.800639,1.57142857 L220.003514,1.57142857 L220.003514,7.71428571 L224.800639,7.71428571 L224.800639,7.71428571 Z" id="Shape"></path>
                </g>
            </g>
        </g>
    </g>
</svg>